<svg width="500" height="500" viewBox="0 0 500 500" fill="none" xmlns="http://www.w3.org/2000/svg">
<path d="M90 40.4762C90 23.6446 103.645 10 120.476 10H247.46V167.46H120.476C103.645 167.46 90 153.816 90 136.984V40.4762Z" fill="#D63336"/>
<path d="M90 203.016C90 186.184 103.645 172.54 120.476 172.54H247.46V330H120.476C103.645 330 90 316.355 90 299.524V203.016Z" fill="#5EAF3C"/>
<path d="M90 363.016C90 346.184 103.645 332.54 120.476 332.54H247.46V459.524C247.46 476.355 233.816 490 216.984 490H120.476C103.645 490 90 476.355 90 459.524V363.016Z" fill="#5EAF3C"/>
<path d="M252.54 10H349.048C382.711 10 410 37.2893 410 70.9524V269.048C410 302.711 382.711 330 349.048 330H252.54V10Z" fill="#3E8320"/>
</svg>
