<svg width="1676" height="500" viewBox="0 0 1676 500" fill="none" xmlns="http://www.w3.org/2000/svg">
<path d="M90 40.4762C90 23.6446 103.645 10 120.476 10H247.46V167.46H120.476C103.645 167.46 90 153.816 90 136.984V40.4762Z" fill="#D63336"/>
<path d="M90 203.016C90 186.184 103.645 172.54 120.476 172.54H247.46V330H120.476C103.645 330 90 316.355 90 299.524V203.016Z" fill="#5EAF3C"/>
<path d="M90 363.016C90 346.184 103.645 332.54 120.476 332.54H247.46V459.524C247.46 476.355 233.816 490 216.984 490H120.476C103.645 490 90 476.355 90 459.524V363.016Z" fill="#5EAF3C"/>
<path d="M252.54 10H349.048C382.711 10 410 37.2893 410 70.9524V269.048C410 302.711 382.711 330 349.048 330H252.54V10Z" fill="#3E8320"/>
<path d="M507.412 244V105.653H536.747V244H507.412ZM584.282 244H555.42V105.653H634.719V129.688H584.282V165.363H631.218V189.304H584.282V244ZM704.208 244L670.899 135.461H670.047C670.173 138.047 670.363 141.959 670.615 147.195C670.93 152.368 671.214 157.888 671.467 163.755C671.719 169.622 671.845 174.921 671.845 179.652V244H645.633V105.653H685.566L718.308 211.448H718.876L753.605 105.653H793.538V244H766.19V178.517C766.19 174.164 766.253 169.149 766.379 163.471C766.569 157.793 766.79 152.399 767.042 147.289C767.294 142.116 767.483 138.236 767.61 135.65H766.758L731.083 244H704.208ZM896.999 244L886.968 211.069H836.531L826.5 244H794.894L843.723 105.085H879.587L928.605 244H896.999ZM879.966 186.466L869.935 154.292C869.304 152.147 868.453 149.403 867.38 146.059C866.371 142.652 865.33 139.214 864.257 135.745C863.248 132.212 862.428 129.152 861.797 126.566C861.166 129.152 860.283 132.369 859.147 136.218C858.075 140.003 857.034 143.599 856.025 147.005C855.015 150.412 854.29 152.841 853.848 154.292L843.912 186.466H879.966ZM622.197 334.501C622.197 350.084 619.2 363.111 613.207 373.583C607.277 383.992 598.666 391.847 587.373 397.146C576.081 402.382 562.486 405 546.588 405H507.412V266.653H550.846C565.356 266.653 577.942 269.239 588.603 274.412C599.265 279.522 607.529 287.124 613.396 297.218C619.263 307.248 622.197 319.676 622.197 334.501ZM591.726 335.259C591.726 325.039 590.212 316.648 587.184 310.087C584.219 303.463 579.803 298.574 573.936 295.42C568.132 292.265 560.94 290.688 552.36 290.688H536.747V380.775H549.332C563.653 380.775 574.283 376.958 581.222 369.325C588.225 361.692 591.726 350.336 591.726 335.259ZM676.072 297.218C685.85 297.218 694.272 299.11 701.338 302.895C708.403 306.617 713.86 312.043 717.709 319.172C721.557 326.3 723.481 335.006 723.481 345.289V359.294H655.254C655.569 367.432 657.998 373.836 662.54 378.504C667.145 383.109 673.517 385.412 681.655 385.412C688.405 385.412 694.588 384.718 700.202 383.33C705.817 381.942 711.589 379.86 717.519 377.084V399.417C712.283 402.003 706.795 403.896 701.054 405.095C695.376 406.293 688.468 406.893 680.33 406.893C669.732 406.893 660.332 404.937 652.131 401.026C643.993 397.114 637.59 391.153 632.921 383.141C628.316 375.129 626.013 365.035 626.013 352.859C626.013 340.495 628.095 330.212 632.259 322.01C636.486 313.746 642.353 307.564 649.86 303.463C657.367 299.3 666.104 297.218 676.072 297.218ZM676.261 317.752C670.647 317.752 665.978 319.55 662.256 323.146C658.597 326.742 656.484 332.388 655.916 340.085H696.417C696.354 335.795 695.566 331.978 694.051 328.634C692.6 325.291 690.392 322.641 687.427 320.686C684.525 318.73 680.803 317.752 676.261 317.752ZM804.61 373.583C804.61 380.775 802.906 386.863 799.5 391.847C796.156 396.767 791.141 400.521 784.454 403.107C777.766 405.631 769.439 406.893 759.472 406.893C752.091 406.893 745.75 406.419 740.451 405.473C735.215 404.527 729.916 402.95 724.554 400.742V376.895C730.294 379.482 736.445 381.627 743.006 383.33C749.63 384.97 755.434 385.79 760.418 385.79C766.033 385.79 770.038 384.97 772.436 383.33C774.896 381.627 776.126 379.419 776.126 376.706C776.126 374.94 775.622 373.362 774.612 371.975C773.666 370.524 771.584 368.915 768.367 367.148C765.149 365.319 760.102 362.953 753.226 360.051C746.602 357.275 741.145 354.468 736.855 351.629C732.629 348.79 729.474 345.447 727.392 341.599C725.374 337.687 724.364 332.735 724.364 326.742C724.364 316.964 728.149 309.614 735.72 304.693C743.353 299.71 753.541 297.218 766.285 297.218C772.846 297.218 779.091 297.88 785.021 299.205C791.015 300.53 797.165 302.643 803.474 305.545L794.768 326.363C789.532 324.092 784.58 322.231 779.911 320.78C775.306 319.329 770.606 318.604 765.812 318.604C761.585 318.604 758.399 319.172 756.254 320.307C754.109 321.443 753.037 323.178 753.037 325.512C753.037 327.215 753.573 328.729 754.645 330.054C755.781 331.379 757.926 332.861 761.08 334.501C764.298 336.079 768.998 338.129 775.18 340.652C781.173 343.113 786.378 345.699 790.794 348.412C795.21 351.062 798.616 354.374 801.014 358.348C803.411 362.259 804.61 367.338 804.61 373.583ZM839.843 299.205V405H810.981V299.205H839.843ZM825.459 257.757C829.749 257.757 833.44 258.767 836.531 260.786C839.622 262.741 841.168 266.432 841.168 271.857C841.168 277.219 839.622 280.942 836.531 283.023C833.44 285.042 829.749 286.051 825.459 286.051C821.107 286.051 817.384 285.042 814.293 283.023C811.265 280.942 809.751 277.219 809.751 271.857C809.751 266.432 811.265 262.741 814.293 260.786C817.384 258.767 821.107 257.757 825.459 257.757ZM885.013 451.557C870.25 451.557 858.958 448.971 851.135 443.798C843.376 438.688 839.496 431.496 839.496 422.222C839.496 415.851 841.483 410.52 845.458 406.23C849.432 401.94 855.268 398.881 862.964 397.051C859.999 395.789 857.412 393.739 855.204 390.9C852.996 387.998 851.892 384.939 851.892 381.721C851.892 377.684 853.06 374.34 855.394 371.691C857.728 368.978 861.103 366.328 865.519 363.742C859.967 361.345 855.551 357.496 852.271 352.197C849.054 346.898 847.445 340.652 847.445 333.461C847.445 325.764 849.117 319.235 852.46 313.872C855.867 308.447 860.788 304.315 867.222 301.476C873.72 298.637 881.606 297.218 890.88 297.218C892.835 297.218 895.106 297.344 897.693 297.596C900.279 297.849 902.645 298.132 904.79 298.448C906.998 298.763 908.481 299.016 909.238 299.205H946.143V313.872L929.583 318.131C931.097 320.465 932.232 322.957 932.989 325.606C933.746 328.256 934.125 331.063 934.125 334.028C934.125 345.384 930.151 354.247 922.202 360.619C914.316 366.928 903.339 370.082 889.271 370.082C885.927 369.893 882.773 369.64 879.808 369.325C878.357 370.46 877.253 371.659 876.496 372.921C875.739 374.183 875.36 375.507 875.36 376.895C875.36 378.283 875.928 379.45 877.064 380.396C878.262 381.28 880.029 381.974 882.363 382.478C884.76 382.92 887.725 383.141 891.258 383.141H909.238C920.845 383.141 929.677 385.633 935.734 390.616C941.853 395.6 944.913 402.918 944.913 412.57C944.913 424.935 939.74 434.524 929.394 441.337C919.111 448.151 904.317 451.557 885.013 451.557ZM886.243 432.726C893.119 432.726 899.018 432.064 903.938 430.739C908.922 429.477 912.739 427.648 915.388 425.251C918.038 422.916 919.363 420.109 919.363 416.829C919.363 414.179 918.574 412.066 916.997 410.488C915.483 408.974 913.149 407.902 909.995 407.271C906.903 406.64 902.929 406.325 898.071 406.325H883.12C879.587 406.325 876.401 406.893 873.562 408.028C870.787 409.164 868.579 410.741 866.938 412.76C865.298 414.841 864.478 417.239 864.478 419.951C864.478 423.926 866.371 427.049 870.156 429.32C874.004 431.591 879.366 432.726 886.243 432.726ZM890.88 352.481C896.305 352.481 900.279 350.809 902.803 347.466C905.326 344.122 906.588 339.58 906.588 333.839C906.588 327.467 905.263 322.704 902.614 319.55C900.027 316.333 896.116 314.724 890.88 314.724C885.58 314.724 881.606 316.333 878.956 319.55C876.307 322.704 874.982 327.467 874.982 333.839C874.982 339.58 876.275 344.122 878.862 347.466C881.511 350.809 885.517 352.481 890.88 352.481ZM1007.59 297.218C1018.88 297.218 1027.97 300.309 1034.84 306.491C1041.72 312.611 1045.16 322.452 1045.16 336.016V405H1016.29V343.207C1016.29 335.637 1014.91 329.928 1012.13 326.079C1009.42 322.231 1005.13 320.307 999.261 320.307C990.429 320.307 984.404 323.304 981.187 329.297C977.97 335.29 976.361 343.933 976.361 355.225V405H947.499V299.205H969.548L973.427 312.737H975.036C977.307 309.078 980.115 306.113 983.458 303.842C986.865 301.571 990.618 299.899 994.719 298.826C998.883 297.754 1003.17 297.218 1007.59 297.218ZM1176.85 366.581C1176.85 374.782 1174.86 381.911 1170.89 387.967C1166.91 394.023 1161.11 398.691 1153.47 401.972C1145.9 405.252 1136.69 406.893 1125.84 406.893C1121.05 406.893 1116.35 406.577 1111.74 405.946C1107.2 405.315 1102.82 404.401 1098.59 403.202C1094.43 401.94 1090.45 400.395 1086.67 398.565V371.312C1093.23 374.214 1100.04 376.832 1107.11 379.166C1114.17 381.5 1121.17 382.668 1128.11 382.668C1132.91 382.668 1136.76 382.037 1139.66 380.775C1142.62 379.513 1144.77 377.778 1146.09 375.57C1147.42 373.362 1148.08 370.839 1148.08 368C1148.08 364.53 1146.91 361.565 1144.58 359.105C1142.25 356.645 1139.03 354.342 1134.93 352.197C1130.89 350.052 1126.32 347.75 1121.21 345.289C1117.99 343.775 1114.49 341.946 1110.7 339.801C1106.92 337.593 1103.32 334.912 1099.91 331.757C1096.51 328.603 1093.7 324.786 1091.49 320.307C1089.35 315.765 1088.28 310.34 1088.28 304.031C1088.28 295.767 1090.17 288.701 1093.95 282.834C1097.74 276.967 1103.13 272.488 1110.13 269.397C1117.2 266.242 1125.53 264.665 1135.12 264.665C1142.31 264.665 1149.15 265.517 1155.65 267.22C1162.21 268.861 1169.06 271.258 1176.19 274.412L1166.72 297.218C1160.35 294.631 1154.64 292.644 1149.6 291.256C1144.55 289.805 1139.41 289.08 1134.17 289.08C1130.51 289.08 1127.39 289.679 1124.8 290.878C1122.22 292.013 1120.26 293.653 1118.94 295.798C1117.61 297.88 1116.95 300.309 1116.95 303.085C1116.95 306.365 1117.89 309.141 1119.79 311.412C1121.74 313.62 1124.64 315.765 1128.49 317.847C1132.4 319.929 1137.26 322.357 1143.07 325.133C1150.13 328.477 1156.16 331.978 1161.14 335.637C1166.19 339.233 1170.07 343.491 1172.78 348.412C1175.49 353.27 1176.85 359.326 1176.85 366.581ZM1168.36 299.205H1199.97L1219.94 358.726C1220.57 360.619 1221.1 362.543 1221.54 364.499C1221.99 366.454 1222.36 368.473 1222.68 370.555C1223 372.637 1223.25 374.813 1223.44 377.084H1224C1224.38 373.678 1224.89 370.492 1225.52 367.527C1226.21 364.562 1227.06 361.628 1228.07 358.726L1247.66 299.205H1278.61L1233.85 418.532C1231.13 425.85 1227.6 431.938 1223.25 436.795C1218.89 441.716 1213.88 445.407 1208.2 447.867C1202.59 450.327 1196.4 451.557 1189.65 451.557C1186.37 451.557 1183.54 451.368 1181.14 450.99C1178.74 450.674 1176.69 450.327 1174.99 449.949V427.049C1176.31 427.364 1177.98 427.648 1180 427.9C1182.02 428.153 1184.13 428.279 1186.34 428.279C1190.38 428.279 1193.85 427.427 1196.75 425.724C1199.65 424.02 1202.08 421.718 1204.04 418.816C1205.99 415.977 1207.54 412.854 1208.67 409.448L1210.38 404.243L1168.36 299.205ZM1322.26 383.898C1325.42 383.898 1328.48 383.582 1331.44 382.951C1334.47 382.321 1337.46 381.532 1340.43 380.586V402.067C1337.34 403.454 1333.49 404.59 1328.89 405.473C1324.34 406.419 1319.36 406.893 1313.93 406.893C1307.63 406.893 1301.95 405.883 1296.9 403.864C1291.92 401.783 1287.97 398.218 1285.07 393.171C1282.23 388.061 1280.81 380.964 1280.81 371.88V320.875H1267V308.668L1282.9 299.016L1291.22 276.683H1309.68V299.205H1339.29V320.875H1309.68V371.88C1309.68 375.917 1310.81 378.946 1313.08 380.964C1315.42 382.92 1318.48 383.898 1322.26 383.898ZM1389.38 297.218C1399.16 297.218 1407.58 299.11 1414.65 302.895C1421.72 306.617 1427.17 312.043 1431.02 319.172C1434.87 326.3 1436.79 335.006 1436.79 345.289V359.294H1368.57C1368.88 367.432 1371.31 373.836 1375.85 378.504C1380.46 383.109 1386.83 385.412 1394.97 385.412C1401.72 385.412 1407.9 384.718 1413.51 383.33C1419.13 381.942 1424.9 379.86 1430.83 377.084V399.417C1425.6 402.003 1420.11 403.896 1414.37 405.095C1408.69 406.293 1401.78 406.893 1393.64 406.893C1383.04 406.893 1373.64 404.937 1365.44 401.026C1357.31 397.114 1350.9 391.153 1346.23 383.141C1341.63 375.129 1339.33 365.035 1339.33 352.859C1339.33 340.495 1341.41 330.212 1345.57 322.01C1349.8 313.746 1355.67 307.564 1363.17 303.463C1370.68 299.3 1379.42 297.218 1389.38 297.218ZM1389.57 317.752C1383.96 317.752 1379.29 319.55 1375.57 323.146C1371.91 326.742 1369.8 332.388 1369.23 340.085H1409.73C1409.67 335.795 1408.88 331.978 1407.36 328.634C1405.91 325.291 1403.71 322.641 1400.74 320.686C1397.84 318.73 1394.12 317.752 1389.57 317.752ZM1568.36 297.218C1580.35 297.218 1589.4 300.309 1595.52 306.491C1601.7 312.611 1604.79 322.452 1604.79 336.016V405H1575.84V343.207C1575.84 335.637 1574.54 329.928 1571.96 326.079C1569.37 322.231 1565.36 320.307 1559.94 320.307C1552.3 320.307 1546.88 323.051 1543.66 328.54C1540.44 333.965 1538.84 341.756 1538.84 351.913V405H1509.97V343.207C1509.97 338.16 1509.41 333.934 1508.27 330.527C1507.13 327.12 1505.4 324.565 1503.07 322.862C1500.73 321.159 1497.73 320.307 1494.08 320.307C1488.71 320.307 1484.49 321.663 1481.4 324.376C1478.37 327.026 1476.19 330.969 1474.87 336.205C1473.6 341.378 1472.97 347.718 1472.97 355.225V405H1444.11V299.205H1466.16L1470.04 312.737H1471.65C1473.79 309.078 1476.47 306.113 1479.69 303.842C1482.97 301.571 1486.57 299.899 1490.48 298.826C1494.39 297.754 1498.37 297.218 1502.4 297.218C1510.16 297.218 1516.72 298.479 1522.09 301.003C1527.51 303.526 1531.67 307.438 1534.58 312.737H1537.13C1540.29 307.311 1544.73 303.369 1550.47 300.908C1556.28 298.448 1562.24 297.218 1568.36 297.218Z" fill="black"/>
</svg>
