<svg width="1676" height="500" viewBox="0 0 1676 500" fill="none" xmlns="http://www.w3.org/2000/svg">
<g clip-path="url(#clip0_327_448)">
<path d="M7 52.6349C7 36.8203 19.8203 24 35.6349 24H154.947V171.947H35.6349C19.8203 171.947 7 159.127 7 143.312V52.6349Z" fill="#D63336"/>
<path d="M7 205.355C7 189.54 19.8203 176.72 35.6349 176.72H154.947V324.667H35.6349C19.8203 324.667 7 311.847 7 296.032V205.355Z" fill="#5EAF3C"/>
<path d="M7 355.688C7 339.873 19.8203 327.053 35.6349 327.053H154.947V446.365C154.947 462.18 142.127 475 126.312 475H35.6349C19.8203 475 7 462.18 7 446.365V355.688Z" fill="#5EAF3C"/>
<path d="M159.72 24H250.397C282.026 24 307.667 49.6406 307.667 81.2698V267.397C307.667 299.026 282.026 324.667 250.397 324.667H159.72V24Z" fill="#3E8320"/>
<path d="M414.708 242.754V87.5431H447.619V242.754H414.708ZM500.948 242.754H468.568V87.5431H557.533V114.509H500.948V154.532H553.605V181.391H500.948V242.754ZM635.492 242.754L598.123 120.985H597.167C597.309 123.886 597.521 128.274 597.804 134.149C598.158 139.952 598.477 146.145 598.76 152.727C599.043 159.309 599.185 165.255 599.185 170.563V242.754H569.777V87.5431H614.578L651.311 206.234H651.948L690.91 87.5431H735.711V242.754H705.029V169.289C705.029 164.405 705.1 158.779 705.242 152.409C705.454 146.039 705.702 139.988 705.985 134.255C706.268 128.451 706.48 124.099 706.622 121.197H705.666L665.643 242.754H635.492ZM851.782 242.754L840.529 205.809H783.944L772.691 242.754H737.232L792.012 86.9061H832.248L887.241 242.754H851.782ZM832.673 178.207L821.42 142.111C820.712 139.705 819.756 136.626 818.553 132.875C817.421 129.053 816.253 125.196 815.05 121.303C813.917 117.34 812.997 113.907 812.29 111.005C811.582 113.907 810.591 117.517 809.317 121.834C808.114 126.08 806.946 130.115 805.814 133.936C804.681 137.758 803.867 140.483 803.372 142.111L792.225 178.207H832.673ZM543.484 344.662C543.484 362.144 540.122 376.759 533.399 388.508C526.746 400.186 517.085 408.997 504.416 414.942C491.747 420.817 476.495 423.754 458.66 423.754H414.708V268.543H463.437C479.715 268.543 493.835 271.445 505.796 277.248C517.757 282.981 527.029 291.51 533.611 302.834C540.193 314.087 543.484 328.03 543.484 344.662ZM509.3 345.511C509.3 334.046 507.601 324.633 504.204 317.272C500.877 309.841 495.923 304.355 489.341 300.817C482.83 297.278 474.761 295.509 465.136 295.509H447.619V396.576H461.739C477.805 396.576 489.73 392.294 497.516 383.73C505.372 375.166 509.3 362.427 509.3 345.511ZM603.927 302.834C614.897 302.834 624.345 304.957 632.272 309.204C640.199 313.379 646.321 319.466 650.638 327.464C654.956 335.461 657.114 345.228 657.114 356.765V372.477H580.571C580.924 381.607 583.649 388.791 588.745 394.028C593.912 399.195 601.06 401.778 610.19 401.778C617.763 401.778 624.699 400.999 630.998 399.442C637.297 397.885 643.773 395.55 650.426 392.436V417.49C644.552 420.392 638.394 422.515 631.954 423.86C625.584 425.205 617.834 425.877 608.704 425.877C596.814 425.877 586.268 423.683 577.067 419.295C567.937 414.907 560.753 408.219 555.516 399.23C550.349 390.242 547.766 378.917 547.766 365.258C547.766 351.386 550.102 339.849 554.773 330.649C559.515 321.377 566.097 314.441 574.519 309.841C582.942 305.169 592.744 302.834 603.927 302.834ZM604.139 325.871C597.84 325.871 592.602 327.888 588.427 331.923C584.322 335.957 581.951 342.291 581.314 350.926H626.752C626.681 346.113 625.796 341.831 624.098 338.08C622.47 334.329 619.993 331.356 616.666 329.162C613.41 326.968 609.235 325.871 604.139 325.871ZM748.132 388.508C748.132 396.576 746.221 403.406 742.399 408.997C738.648 414.518 733.021 418.729 725.519 421.631C718.017 424.462 708.674 425.877 697.492 425.877C689.211 425.877 682.098 425.346 676.153 424.285C670.279 423.223 664.333 421.454 658.317 418.976V392.223C664.758 395.125 671.659 397.531 679.019 399.442C686.451 401.283 692.962 402.203 698.553 402.203C704.852 402.203 709.347 401.283 712.036 399.442C714.796 397.531 716.176 395.054 716.176 392.011C716.176 390.029 715.61 388.26 714.478 386.703C713.416 385.075 711.081 383.27 707.471 381.288C703.862 379.236 698.199 376.582 690.485 373.326C683.054 370.212 676.931 367.063 672.119 363.878C667.377 360.693 663.838 356.942 661.502 352.624C659.238 348.236 658.105 342.68 658.105 335.957C658.105 324.987 662.352 316.741 670.845 311.221C679.409 305.629 690.839 302.834 705.135 302.834C712.496 302.834 719.503 303.577 726.156 305.063C732.879 306.55 739.78 308.921 746.858 312.176L737.091 335.532C731.216 332.984 725.66 330.896 720.423 329.268C715.256 327.641 709.984 326.827 704.605 326.827C699.863 326.827 696.289 327.464 693.882 328.738C691.476 330.012 690.273 331.958 690.273 334.577C690.273 336.488 690.874 338.186 692.077 339.672C693.351 341.159 695.758 342.822 699.297 344.662C702.906 346.432 708.179 348.732 715.115 351.563C721.839 354.323 727.677 357.225 732.632 360.268C737.586 363.241 741.408 366.956 744.097 371.415C746.787 375.803 748.132 381.501 748.132 388.508ZM787.66 305.063V423.754H755.28V305.063H787.66ZM771.523 258.564C776.336 258.564 780.476 259.696 783.944 261.961C787.412 264.155 789.146 268.295 789.146 274.382C789.146 280.398 787.412 284.574 783.944 286.909C780.476 289.174 776.336 290.307 771.523 290.307C766.639 290.307 762.464 289.174 758.996 286.909C755.598 284.574 753.9 280.398 753.9 274.382C753.9 268.295 755.598 264.155 758.996 261.961C762.464 259.696 766.639 258.564 771.523 258.564ZM838.335 475.986C821.774 475.986 809.105 473.084 800.329 467.281C791.623 461.548 787.27 453.479 787.27 443.075C787.27 435.927 789.5 429.947 793.959 425.134C798.418 420.321 804.964 416.889 813.599 414.836C810.273 413.421 807.371 411.12 804.894 407.935C802.416 404.68 801.178 401.247 801.178 397.638C801.178 393.108 802.487 389.357 805.106 386.384C807.725 383.341 811.511 380.368 816.465 377.467C810.237 374.777 805.283 370.46 801.603 364.515C797.993 358.57 796.188 351.563 796.188 343.494C796.188 334.86 798.064 327.534 801.815 321.519C805.637 315.432 811.157 310.796 818.376 307.611C825.666 304.426 834.513 302.834 844.917 302.834C847.111 302.834 849.659 302.975 852.561 303.258C855.463 303.542 858.117 303.86 860.523 304.214C863 304.568 864.663 304.851 865.513 305.063H906.916V321.519L888.338 326.296C890.037 328.915 891.31 331.71 892.16 334.683C893.009 337.655 893.434 340.805 893.434 344.131C893.434 356.871 888.975 366.815 880.057 373.963C871.21 381.041 858.895 384.58 843.112 384.58C839.361 384.367 835.822 384.084 832.496 383.73C830.868 385.004 829.63 386.349 828.78 387.764C827.931 389.18 827.506 390.666 827.506 392.223C827.506 393.78 828.143 395.09 829.417 396.151C830.762 397.142 832.744 397.921 835.362 398.487C838.052 398.982 841.378 399.23 845.342 399.23H865.513C878.535 399.23 888.444 402.026 895.239 407.617C902.104 413.208 905.536 421.418 905.536 432.247C905.536 446.119 899.733 456.877 888.126 464.52C876.589 472.164 859.992 475.986 838.335 475.986ZM839.715 454.86C847.43 454.86 854.047 454.116 859.568 452.63C865.159 451.215 869.441 449.162 872.413 446.473C875.386 443.854 876.872 440.705 876.872 437.024C876.872 434.052 875.988 431.681 874.218 429.911C872.52 428.213 869.901 427.009 866.362 426.302C862.894 425.594 858.435 425.24 852.986 425.24H836.212C832.248 425.24 828.674 425.877 825.489 427.151C822.375 428.425 819.898 430.194 818.058 432.459C816.218 434.795 815.298 437.484 815.298 440.528C815.298 444.986 817.421 448.49 821.667 451.038C825.985 453.586 832.001 454.86 839.715 454.86ZM844.917 364.833C851.004 364.833 855.463 362.958 858.294 359.207C861.125 355.455 862.54 350.36 862.54 343.919C862.54 336.771 861.054 331.427 858.081 327.888C855.18 324.279 850.791 322.474 844.917 322.474C838.972 322.474 834.513 324.279 831.541 327.888C828.568 331.427 827.082 336.771 827.082 343.919C827.082 350.36 828.533 355.455 831.434 359.207C834.407 362.958 838.901 364.833 844.917 364.833ZM975.852 302.834C988.521 302.834 998.712 306.302 1006.43 313.238C1014.14 320.103 1018 331.144 1018 346.361V423.754H985.619V354.429C985.619 345.936 984.062 339.531 980.948 335.214C977.904 330.896 973.092 328.738 966.509 328.738C956.601 328.738 949.842 332.099 946.232 338.823C942.623 345.547 940.818 355.243 940.818 367.912V423.754H908.438V305.063H933.174L937.527 320.245H939.332C941.88 316.14 945.029 312.813 948.78 310.265C952.602 307.717 956.813 305.842 961.414 304.639C966.085 303.435 970.898 302.834 975.852 302.834ZM1165.74 380.651C1165.74 389.852 1163.51 397.85 1159.05 404.644C1154.6 411.439 1148.08 416.676 1139.52 420.357C1131.03 424.037 1120.69 425.877 1108.52 425.877C1103.14 425.877 1097.87 425.523 1092.7 424.815C1087.61 424.108 1082.69 423.081 1077.95 421.737C1073.27 420.321 1068.82 418.587 1064.57 416.535V385.96C1071.93 389.215 1079.57 392.153 1087.5 394.771C1095.43 397.39 1103.28 398.699 1111.07 398.699C1116.45 398.699 1120.76 397.991 1124.02 396.576C1127.35 395.16 1129.75 393.214 1131.24 390.737C1132.73 388.26 1133.47 385.429 1133.47 382.244C1133.47 378.351 1132.16 375.025 1129.54 372.265C1126.92 369.504 1123.31 366.921 1118.71 364.515C1114.18 362.108 1109.05 359.525 1103.32 356.765C1099.71 355.066 1095.78 353.014 1091.53 350.607C1087.29 348.13 1083.25 345.122 1079.43 341.583C1075.61 338.045 1072.46 333.763 1069.98 328.738C1067.58 323.642 1066.37 317.555 1066.37 310.478C1066.37 301.206 1068.5 293.279 1072.74 286.697C1076.99 280.115 1083.04 275.09 1090.9 271.622C1098.82 268.083 1108.17 266.314 1118.92 266.314C1126.99 266.314 1134.67 267.269 1141.96 269.18C1149.32 271.02 1157 273.71 1165 277.248L1154.38 302.834C1147.23 299.932 1140.83 297.703 1135.17 296.146C1129.51 294.518 1123.74 293.704 1117.86 293.704C1113.76 293.704 1110.25 294.376 1107.35 295.721C1104.45 296.995 1102.26 298.835 1100.77 301.241C1099.28 303.577 1098.54 306.302 1098.54 309.416C1098.54 313.096 1099.6 316.21 1101.73 318.758C1103.92 321.235 1107.18 323.642 1111.49 325.977C1115.88 328.313 1121.33 331.038 1127.84 334.152C1135.77 337.903 1142.53 341.831 1148.12 345.936C1153.78 349.97 1158.13 354.748 1161.18 360.268C1164.22 365.718 1165.74 372.512 1165.74 380.651ZM1156.22 305.063H1191.68L1214.08 371.84C1214.79 373.963 1215.39 376.122 1215.89 378.316C1216.38 380.51 1216.81 382.775 1217.16 385.11C1217.51 387.446 1217.8 389.888 1218.01 392.436H1218.65C1219.07 388.614 1219.64 385.04 1220.35 381.713C1221.12 378.387 1222.08 375.096 1223.21 371.84L1245.19 305.063H1279.9L1229.69 438.935C1226.64 447.145 1222.68 453.975 1217.8 459.425C1212.91 464.945 1207.29 469.086 1200.92 471.846C1194.62 474.606 1187.68 475.986 1180.11 475.986C1176.43 475.986 1173.24 475.774 1170.56 475.349C1167.87 474.995 1165.57 474.606 1163.65 474.181V448.49C1165.14 448.844 1167.02 449.162 1169.28 449.445C1171.55 449.728 1173.92 449.87 1176.39 449.87C1180.92 449.87 1184.82 448.914 1188.07 447.004C1191.33 445.093 1194.05 442.509 1196.25 439.254C1198.44 436.069 1200.17 432.565 1201.45 428.743L1203.36 422.904L1156.22 305.063ZM1328.88 400.079C1332.42 400.079 1335.85 399.725 1339.18 399.018C1342.58 398.31 1345.94 397.425 1349.26 396.364V420.463C1345.8 422.02 1341.48 423.294 1336.31 424.285C1331.22 425.346 1325.62 425.877 1319.54 425.877C1312.46 425.877 1306.09 424.745 1300.43 422.48C1294.84 420.144 1290.41 416.145 1287.16 410.483C1283.97 404.751 1282.38 396.788 1282.38 386.597V329.375H1266.88V315.68L1284.72 304.851L1294.06 279.796H1314.76V305.063H1347.99V329.375H1314.76V386.597C1314.76 391.126 1316.03 394.523 1318.58 396.788C1321.2 398.982 1324.63 400.079 1328.88 400.079ZM1404.19 302.834C1415.16 302.834 1424.6 304.957 1432.53 309.204C1440.46 313.379 1446.58 319.466 1450.9 327.464C1455.21 335.461 1457.37 345.228 1457.37 356.765V372.477H1380.83C1381.18 381.607 1383.91 388.791 1389 394.028C1394.17 399.195 1401.32 401.778 1410.45 401.778C1418.02 401.778 1424.96 400.999 1431.26 399.442C1437.56 397.885 1444.03 395.55 1450.68 392.436V417.49C1444.81 420.392 1438.65 422.515 1432.21 423.86C1425.84 425.205 1418.09 425.877 1408.96 425.877C1397.07 425.877 1386.53 423.683 1377.33 419.295C1368.2 414.907 1361.01 408.219 1355.77 399.23C1350.61 390.242 1348.02 378.917 1348.02 365.258C1348.02 351.386 1350.36 339.849 1355.03 330.649C1359.77 321.377 1366.36 314.441 1374.78 309.841C1383.2 305.169 1393 302.834 1404.19 302.834ZM1404.4 325.871C1398.1 325.871 1392.86 327.888 1388.69 331.923C1384.58 335.957 1382.21 342.291 1381.57 350.926H1427.01C1426.94 346.113 1426.05 341.831 1424.36 338.08C1422.73 334.329 1420.25 331.356 1416.92 329.162C1413.67 326.968 1409.49 325.871 1404.4 325.871ZM1604.98 302.834C1618.42 302.834 1628.58 306.302 1635.44 313.238C1642.38 320.103 1645.85 331.144 1645.85 346.361V423.754H1613.36V354.429C1613.36 345.936 1611.91 339.531 1609.01 335.214C1606.11 330.896 1601.61 328.738 1595.53 328.738C1586.96 328.738 1580.88 331.816 1577.27 337.974C1573.66 344.061 1571.85 352.801 1571.85 364.196V423.754H1539.47V354.429C1539.47 348.767 1538.84 344.025 1537.56 340.203C1536.29 336.381 1534.34 333.515 1531.72 331.604C1529.1 329.693 1525.74 328.738 1521.64 328.738C1515.62 328.738 1510.88 330.259 1507.41 333.303C1504.01 336.275 1501.57 340.699 1500.09 346.573C1498.67 352.377 1497.96 359.49 1497.96 367.912V423.754H1465.58V305.063H1490.32L1494.67 320.245H1496.48C1498.88 316.14 1501.89 312.813 1505.5 310.265C1509.18 307.717 1513.21 305.842 1517.6 304.639C1521.99 303.435 1526.45 302.834 1530.98 302.834C1539.68 302.834 1547.05 304.249 1553.06 307.08C1559.15 309.911 1563.82 314.299 1567.08 320.245H1569.94C1573.48 314.158 1578.47 309.734 1584.91 306.974C1591.42 304.214 1598.11 302.834 1604.98 302.834Z" fill="black"/>
</g>
<defs>
<clipPath id="clip0_327_448">
<rect width="1676" height="500" fill="white"/>
</clipPath>
</defs>
</svg>
